<?xml version="1.0" encoding="UTF-8"?>
<svg id="Capa_2" data-name="Capa 2" xmlns="http://www.w3.org/2000/svg" viewBox="0 0 1997.3 349.68">
  <defs>
    <style>
      .cls-1 {
        fill: #fff;
        stroke-width: 0px;
      }
    </style>
  </defs>
  <g id="Capa_1-2" data-name="Capa 1">
    <g>
      <g>
        <path class="cls-1" d="M250.87,117.47c10.57-9.58,22.47-16.42,35.84-19.3v-35.63c0-2.05-1.68-4.65-3.79-5.83L184.38,1.71c-4.64-2.59-8.5-2.2-8.5.95v344.37c0,3.15,3.87,3.54,8.5.95l32.16-17.95v-13.77c0-6.19.02-12.33.06-18.49.27-33.57.2-67.15,1.13-100.71.85-30.56,9.65-58.31,33.13-79.59Z"/>
        <path class="cls-1" d="M155.15,106.87c-39.87-.45-79.75-.93-119.62-1.33-11.75-.12-23.49-.02-35.24-.02-.1.56-.19,1.11-.29,1.67,1.46.37,2.9.89,4.38,1.09,26.64,3.6,51.2,12.68,73.2,28.19,23.77,16.76,39.37,38.85,41.44,67.74v143.88c0,2.15,3.17,2.09,6.95-.05l32.74-18.51c2.6-1.47,4.64-4.01,4.64-5.71v-23.33c.08-1.13.11-2.29.11-3.5-.05-60.28.31-120.56.55-180.84.04-9.18.08-9.19-8.86-9.29Z"/>
        <path class="cls-1" d="M481.27,106.81c-47.58-.47-95.16-1.04-142.73-1.33v.02h-25.84c-19.39,0-36.04,7.93-50.27,20.84-23.49,21.28-32.28,49.02-33.13,79.58-.93,33.56-.87,67.15-1.14,100.72-.04,6.15-.06,12.29-.06,18.49v21.91c0,.15.01.29.03.44.34,2.73,4.05,2.98,8.47.51l20.11-11.23,78.43-43.78c2.1-1.18,3.79-3.77,3.79-5.82v-46.98c.01-3.31.01-6.63,0-9.94v-31.38c1.78-19.62,10.09-36.49,24.29-50.94,24.94-25.39,56.73-34.56,91.06-37.08,10.44-.76,20.93-1.01,31.4-1.5.03-.52.06-1.05.09-1.58-1.49-.33-2.99-.92-4.49-.94ZM302.32,141.02c-3.31,0-6-2.68-6-6s2.69-6,6-6,6,2.68,6,6-2.68,6-6,6Z"/>
      </g>
      <g>
        <polygon class="cls-1" points="420 162.04 401.38 162.04 401.38 287.77 421.58 287.77 421.82 204.52 471.73 287.77 496.53 287.77 548.55 202.69 548.78 287.77 568.98 287.77 568.98 162.04 550.17 162.04 485.09 268.55 420 162.04"/>
        <path class="cls-1" d="M624.12,210.78l-9.18,9.94v-19.93h-23.69v86.98h23.69v-45.34c0-8.39,4.1-15.14,11.85-19.51,6.87-3.87,15.14-5.84,24.57-5.84v-17.26h-.36c-11.28,0-20.08,3.58-26.88,10.95Z"/>
        <rect class="cls-1" x="660.31" y="270.12" width="28.17" height="17.65"/>
        <polygon class="cls-1" points="1488.65 162.04 1470.04 162.04 1470.04 287.77 1490.24 287.77 1490.47 204.52 1540.38 287.77 1565.18 287.77 1617.2 202.69 1617.44 287.77 1637.64 287.77 1637.64 162.04 1618.83 162.04 1553.74 268.55 1488.65 162.04"/>
        <rect class="cls-1" x="1659.9" y="162.04" width="23.69" height="125.73"/>
        <polygon class="cls-1" points="1705.86 162.04 1705.86 287.77 1729.9 287.77 1729.26 191.87 1815.1 287.77 1840.74 287.77 1840.74 162.04 1817.24 162.04 1817.24 258.34 1730.34 162.04 1705.86 162.04"/>
        <path class="cls-1" d="M1988.33,193.28c-5.94-9.8-14.42-17.51-25.21-22.94-10.95-5.51-23.75-8.3-38.03-8.3h-62.09v125.73h62.28c14.24,0,27.02-2.47,37.97-7.33,10.69-4.75,19.14-11.71,25.1-20.68,5.94-8.94,8.95-19.81,8.95-32.32s-3.02-24.34-8.97-34.16ZM1962.69,258.45c-7.58,8.78-20.29,13.23-37.79,13.23h-38.4v-93.54h38.4c11.85,0,21.61,2.69,28.99,8.01,7.29,5.25,12.52,11.73,15.55,19.26,2.9,7.23,4.38,14.64,4.38,22.03,0,12.03-3.74,22.46-11.12,31.01Z"/>
      </g>
      <g>
        <path class="cls-1" d="M834.39,269.43c-5.59,7.44-13.2,13.15-22.84,17.13-9.64,3.99-20.82,5.98-33.55,5.98-14.04,0-26.59-2.74-37.65-8.21-11.06-5.47-19.72-13.23-25.96-23.29-6.25-10.05-9.37-21.74-9.37-35.07s3.15-25.37,9.46-35.78c6.3-10.41,15.02-18.5,26.14-24.27,11.12-5.77,23.58-8.65,37.39-8.65,12.97,0,24.3,2.2,34,6.6,9.69,4.4,17.28,10.53,22.75,18.38,5.47,7.85,8.51,16.72,9.1,26.59h-30.34c-4.52-17.96-16.36-26.95-35.51-26.95-12.97,0-23.08,4.05-30.34,12.13-7.26,8.09-10.89,18.74-10.89,31.95s3.69,23.23,11.06,30.78c7.38,7.56,17.43,11.33,30.16,11.33,9.4,0,16.89-1.81,22.49-5.44,5.59-3.63,9.69-9.25,12.31-16.86l1.07-2.5h29.98c-.71,9.99-3.87,18.71-9.46,26.14Z"/>
        <path class="cls-1" d="M858.06,162.45h74.59c10.23,0,19.01,1.64,26.32,4.91,7.32,3.27,12.79,7.58,16.42,12.94,3.63,5.35,5.44,11.01,5.44,16.95s-1.7,11.27-5.09,16.33c-3.39,5.06-8.24,9.07-14.54,12.05,5.83,1.78,10.11,4.61,12.85,8.48,2.74,3.87,4.1,9.07,4.1,15.61v37.65h-31.41v-36.58c0-4.28-.54-7.37-1.61-9.28-1.07-1.9-3.06-3.18-5.98-3.84-2.92-.65-7.65-.98-14.19-.98h-35.69v50.68h-31.23v-124.92ZM932.66,213.49c5.23,0,9.46-1.45,12.67-4.37,3.21-2.91,4.82-6.22,4.82-9.91,0-3.45-1.49-6.36-4.46-8.74-2.97-2.38-7.32-3.57-13.03-3.57h-43.36v26.59h43.36Z"/>
        <path class="cls-1" d="M1032.24,263.28h82.09v24.09h-113.32v-124.92h113.14v24.09h-81.91v26.95h67.1v23.2l-67.1.18v26.41Z"/>
        <path class="cls-1" d="M1229.16,170.57c10.77,5.41,19.12,13.03,25.07,22.84,5.95,9.82,8.92,21.09,8.92,33.82s-3.01,23.26-9.01,32.3c-6.01,9.04-14.36,15.94-25.07,20.7-10.71,4.76-22.96,7.14-36.76,7.14h-61.92v-124.92h61.75c13.92,0,26.26,2.71,37.03,8.12ZM1191.95,262.92c14.63,0,24.95-3.48,30.96-10.44,6.01-6.96,9.01-15.37,9.01-25.25,0-6.18-1.22-12.31-3.66-18.38-2.44-6.07-6.63-11.24-12.58-15.53-5.95-4.28-13.86-6.42-23.74-6.42h-30.34v76.02h30.34Z"/>
        <path class="cls-1" d="M1309.5,162.45v124.92h-31.41v-124.92h31.41Z"/>
        <path class="cls-1" d="M1450.59,162.45v24.09h-45.69v100.83h-31.23v-100.83h-46.04l.18-24.09h122.78Z"/>
      </g>
    </g>
  </g>
</svg>